PathFileType	4	(X/Y/Z)	Run_300 02
DataRate	CameraRate	NumFrames	NumMarkers	Units	OrigDataRate	OrigDataStartFrame	OrigNumFrames
100	100	6	45	mm	100	141	137
Frame#	Time	LASI			RASI			LPSI			RPSI			RTH1			RTH2			RTH3			LTH1			LTH2			LTH3			RTB1			RTB2			RTB3			RLMAL			RMMAL			LTB1			LTB2			LTB3			RCAL			RTOE			RMT5			LCAL			LTOE			LMT5			LACR			RACR			CLAV			C7			LPSH			RUA1			RUA2			RUA3			RLEL			RMEL			LUA1			LUA2			LUA3			LLEL			LMEL			RFAsuperior			RFAradius			RFAulna			LFAsuperior			LFAradius			LFAulna		
		X1	Y1	Z1	X2	Y2	Z2	X3	Y3	Z3	X4	Y4	Z4	X5	Y5	Z5	X6	Y6	Z6	X7	Y7	Z7	X8	Y8	Z8	X9	Y9	Z9	X10	Y10	Z10	X11	Y11	Z11	X12	Y12	Z12	X13	Y13	Z13	X14	Y14	Z14	X15	Y15	Z15	X16	Y16	Z16	X17	Y17	Z17	X18	Y18	Z18	X19	Y19	Z19	X20	Y20	Z20	X21	Y21	Z21	X22	Y22	Z22	X23	Y23	Z23	X24	Y24	Z24	X25	Y25	Z25	X26	Y26	Z26	X27	Y27	Z27	X28	Y28	Z28	X29	Y29	Z29	X30	Y30	Z30	X31	Y31	Z31	X32	Y32	Z32	X33	Y33	Z33	X34	Y34	Z34	X35	Y35	Z35	X36	Y36	Z36	X37	Y37	Z37	X38	Y38	Z38	X39	Y39	Z39	X40	Y40	Z40	X41	Y41	Z41	X42	Y42	Z42	X43	Y43	Z43	X44	Y44	Z44	X45	Y45	Z45	

141	  1.410000	945.565418	1094.946044	-429.307412	963.608480	1079.338352	-202.600913	789.426462	1132.019305	-357.077613	795.205973	1126.451603	-266.724112	809.231358	836.737473	-149.541570	854.072029	751.894545	-183.936356	752.987610	678.454249	-179.814252	913.187086	882.388017	-479.000621	1035.031988	820.023080	-470.751373	1031.913839	710.900801	-455.008372	689.441276	431.665819	-227.627088	621.312307	402.943613	-189.874206	583.173776	280.340731	-239.689533	490.549949	200.889700	-230.155691	525.547228	209.441342	-307.010730	1087.395273	494.399217	-421.482737	970.609420	428.816020	-443.000327	1001.760819	321.262188	-406.503830	434.968615	221.422708	-297.892846	576.417322	 67.712366	-278.615934	515.030772	 79.527074	-209.078748	855.732121	213.061825	-356.089483	1059.879674	125.968048	-389.632794	994.595369	128.223371	-454.223062	873.112374	1601.907382	-451.975783	947.660384	1570.352364	-155.149912	991.713351	1516.415890	-299.270654	878.382870	1603.921902	-296.466961	789.510288	1573.129161	-434.240291	938.313307	1418.869037	-65.297962	865.933623	1362.012325	-50.234491	891.988819	1306.295987	-16.566988	920.511514	1242.033475	 -6.465993	852.555895	1227.423762	-69.421925	753.011065	1520.599157	-491.902305	683.583007	1464.112028	-459.786254	657.708415	1435.685272	-524.897035	625.081117	1363.763024	-554.315927	619.225443	1349.265775	-464.850207	965.610264	1216.076964	-65.115548	1058.484530	1324.404637	-206.146931	1076.337981	1258.387203	-207.250435	689.249527	1292.189976	-536.813563	861.285268	1310.045794	-510.358267	848.292518	1244.194170	-523.697601	
142	  1.420000	946.507524	1101.015531	-429.959126	965.596908	1084.135901	-203.671446	791.894207	1137.818733	-357.208067	797.491648	1131.825202	-266.655436	805.965942	843.258009	-150.302371	849.279700	757.748329	-182.996777	747.493869	685.944957	-180.180535	912.089456	887.222676	-478.506764	1032.240823	822.535132	-470.561181	1026.663434	712.821300	-453.403222	679.833421	439.862443	-227.120363	610.995168	412.762424	-189.360188	570.142996	290.735262	-238.781918	475.842597	214.133461	-229.086190	511.285867	221.103476	-305.489875	1091.729671	494.083969	-422.341053	981.746245	417.736893	-443.787503	1022.801427	313.607134	-406.464152	423.052662	239.043437	-296.476733	555.479271	 71.808937	-277.433171	493.312764	 91.393672	-208.580434	887.015347	192.157730	-356.048529	1098.870479	124.534228	-386.733940	1034.319630	119.408668	-451.612554	872.733389	1606.883931	-452.669192	947.868627	1576.080556	-157.021832	991.666400	1521.832476	-300.617635	878.254774	1608.842303	-297.820013	789.139430	1578.856888	-434.021826	939.521372	1425.327857	-67.058060	867.328181	1368.875033	-50.603164	893.469914	1312.732956	-17.756438	921.922077	1248.065990	 -8.011007	852.342133	1234.008371	-69.816922	751.889030	1526.642625	-490.563764	684.000365	1470.594783	-456.179611	655.923329	1441.435390	-519.821992	622.018244	1368.912205	-547.571231	618.348447	1355.688515	-457.904827	965.634698	1223.196097	-68.100833	1054.100041	1334.054677	-210.139069	1072.371851	1268.336727	-212.224800	686.752883	1297.585239	-530.435233	859.373077	1316.492898	-508.190230	846.401621	1250.357578	-520.032573	
143	  1.430000	947.427409	1105.609120	-430.021348	966.967687	1088.373318	-204.238009	793.638927	1142.006493	-356.891330	799.368016	1136.361282	-266.583241	803.926202	848.868035	-150.919434	846.852930	762.728650	-182.763974	745.037814	691.592644	-180.916580	909.857253	889.577313	-477.297952	1027.909733	822.569447	-470.423113	1019.887684	712.503076	-452.356217	672.487339	446.648003	-228.203731	603.335516	421.521926	-189.922935	557.689071	301.353508	-238.827641	460.753264	228.800814	-228.636983	496.473264	233.724018	-304.853633	1094.447796	492.539267	-423.716261	992.288244	406.092326	-444.659437	1042.541932	306.525400	-406.493489	410.697820	256.841514	-295.970600	535.535494	 77.279369	-275.490492	472.202252	105.564038	-207.810897	917.780898	173.738521	-355.739261	1135.211618	124.563197	-382.937334	1072.169951	112.326707	-448.060887	872.408656	1610.791296	-453.433997	947.870920	1580.674866	-158.877634	991.736853	1526.169163	-302.010529	878.222621	1612.703220	-299.197985	788.848498	1583.324704	-433.997583	940.335324	1430.555116	-68.868256	868.101855	1374.685689	-51.035918	894.275540	1318.196431	-18.788013	922.373967	1253.120973	 -9.138202	851.579424	1239.680807	-69.989104	751.074126	1531.344893	-489.597863	684.609569	1475.714771	-453.208369	654.772799	1445.665846	-515.504669	619.859421	1372.594130	-541.602802	618.098401	1360.603115	-451.739581	964.776844	1228.886322	-70.308700	1050.009981	1341.148392	-213.342055	1068.204591	1275.619400	-216.373937	685.184114	1301.586363	-524.830649	858.172927	1321.622896	-506.283473	845.367134	1255.281068	-516.891371	
144	  1.440000	948.374977	1108.632114	-429.506993	967.732815	1092.073201	-204.106606	794.696257	1144.479855	-356.322227	800.700131	1139.875354	-266.413573	803.738419	852.964330	-151.055072	847.114705	766.323652	-183.594332	745.600307	695.190639	-181.883680	906.634688	889.825350	-475.836769	1022.387125	820.407713	-470.275932	1012.218454	710.217086	-452.625433	666.940257	452.029955	-229.758664	597.304823	429.637747	-190.977463	545.713636	312.087827	-239.208272	445.407364	244.545979	-228.667693	481.704722	246.780099	-304.693091	1095.648187	490.017584	-425.384060	1002.131087	394.423976	-445.272543	1060.675844	300.220980	-406.165056	398.148133	274.564505	-296.593409	515.011366	 85.364855	-272.500243	451.153339	121.470057	-206.279269	947.258467	158.846418	-354.861042	1168.183742	125.187867	-378.277007	1107.058953	106.749058	-443.790762	872.144686	1613.499436	-454.464363	947.771655	1584.077483	-160.684440	991.909511	1529.403296	-303.484091	878.304389	1615.516370	-300.745254	788.699906	1586.356365	-434.363064	940.629399	1434.477692	-70.555765	868.131771	1379.386494	-51.616488	894.165739	1322.653295	-19.592776	921.717578	1257.112219	 -9.798923	850.053964	1244.313294	-69.974702	750.578882	1534.415136	-488.947662	685.239172	1479.073191	-450.732842	654.128945	1448.263456	-511.984056	618.571627	1374.659589	-536.666054	618.417142	1363.765913	-446.580381	963.017056	1233.087626	-71.713017	1046.323671	1345.655033	-215.673125	1064.061178	1280.177139	-219.398137	684.545238	1304.081678	-520.272723	857.709617	1325.343354	-504.694999	845.218290	1258.841941	-514.444814	
145	  1.450000	949.411284	1110.144293	-428.645936	968.044901	1095.140656	-203.288862	795.344865	1145.445885	-355.867518	801.487787	1142.109606	-266.126627	805.738492	854.924373	-150.929813	849.858814	768.259593	-185.728036	748.820059	696.678742	-182.950576	903.103993	888.948366	-474.809793	1016.527859	816.740062	-470.184766	1004.212393	706.461439	-454.537406	662.947199	456.121557	-231.019415	592.211520	437.570129	-192.173146	534.398310	322.896800	-239.464687	430.366672	261.153967	-229.032862	467.544056	260.072952	-304.664082	1095.474795	486.827011	-427.055000	1010.754397	383.580180	-445.335554	1076.621345	295.003608	-405.207847	385.713633	292.036846	-298.227628	493.837121	 96.965933	-268.272854	430.502389	138.932494	-203.718437	974.308431	147.931503	-352.898105	1197.047640	126.109246	-373.288840	1137.738683	102.595566	-439.257848	872.094542	1614.937372	-455.992043	947.691444	1586.276590	-162.430232	992.126005	1531.505372	-305.047057	878.476743	1617.352977	-302.648620	788.801856	1587.948650	-435.391960	940.249125	1437.112407	-71.960386	867.279767	1382.988403	-52.332569	892.972461	1326.083355	-20.176220	919.861167	1259.998604	-10.016802	847.620490	1247.877688	-69.862007	750.434781	1535.741000	-488.756921	685.903427	1480.482103	-448.778558	653.939631	1449.180163	-509.350900	618.131559	1375.024445	-532.948667	619.282801	1365.019415	-442.636510	960.353507	1235.758001	-72.343320	1043.137967	1347.573997	-217.121647	1060.166147	1282.007223	-221.089569	684.812567	1304.999953	-516.915652	858.038873	1327.550722	-503.463965	845.969466	1260.910969	-512.813269	
146	  1.460000	950.551068	1110.325789	-427.753557	968.145006	1097.389773	-202.047567	795.818505	1145.192482	-355.686036	801.890073	1142.849166	-265.785948	809.768872	854.525012	-151.094987	854.393945	768.626065	-188.792570	754.023944	696.196351	-184.147679	900.112555	887.865053	-474.764067	1011.094446	812.251739	-470.473896	996.167097	701.758283	-457.657598	660.546142	459.027969	-232.014941	588.166253	445.430481	-193.496751	524.180657	333.754038	-239.498641	416.392446	278.474942	-229.544610	454.436888	273.630787	-304.595162	1094.081274	483.276121	-428.506267	1017.304586	374.320545	-444.749569	1089.539053	291.066951	-403.765337	373.806880	309.190627	-300.441352	473.427010	111.558915	-262.844041	411.221364	157.792293	-200.300858	997.496314	140.492694	-349.441748	1220.900092	127.659076	-368.937562	1162.866163	 99.805042	-434.931209	872.421866	1615.093285	-458.123855	947.668676	1587.283386	-164.134224	992.310036	1532.439376	-306.671330	878.684904	1618.277194	-304.953388	789.194393	1588.226641	-437.270577	939.061815	1438.549784	-72.998161	865.445699	1385.491151	-53.173978	890.639590	1328.492446	-20.586267	916.780600	1261.838345	 -9.862921	844.308662	1250.427702	-69.752312	750.675227	1535.384561	-489.319058	686.775490	1479.997893	-447.567687	654.248232	1448.415133	-507.730936	618.538120	1373.665858	-530.560807	620.693253	1364.330765	-440.044150	956.799455	1236.924664	-72.253893	1040.514204	1346.912611	-217.759608	1056.688288	1281.137589	-221.486879	685.954138	1304.305094	-514.795114	859.198491	1328.164762	-502.646971	847.609865	1261.396396	-512.011216	
